<?xml version="1.0" encoding="utf-8"?>
<!-- Generator: Adobe Illustrator 24.2.1, SVG Export Plug-In . SVG Version: 6.00 Build 0)  -->
<svg version="1.1" id="Layer_1" xmlns="http://www.w3.org/2000/svg" xmlns:xlink="http://www.w3.org/1999/xlink" x="0px" y="0px"
	 viewBox="0 0 946.51 293.59" style="enable-background:new 0 0 946.51 293.59;" xml:space="preserve">
<style type="text/css">
	.st0{fill:#124677;}
</style>
<g>
	<path class="st0" d="M627.56,188.94L511.13,18.56C503.56,6.09,496.56,0,482.91,0c-13.85,0-22.35,9.84-22.35,16.84v276.75h46.31
		l0.69-0.3V103.27l120.56,176.78c6.94,10.54,11.19,15.13,22.46,15.13c13.73,0,21.98-7.09,21.98-16.7V12.59h-45V188.94L627.56,188.94
		z"/>
	<path class="st0" d="M121.87,12.88c-12.17,0-15.76,5.74-17.24,8.65C102.89,24.95,0,293.59,0,293.59h50.94l73.97-187.71
		l60.24,138.45h-64.31v49.26H259.3c0,0-118.38-269.25-119.9-272.06C137.98,18.91,134.58,12.88,121.87,12.88L121.87,12.88z"/>
	<path class="st0" d="M808.05,293.59h138.46c0,0-118.38-269.25-119.9-272.06c-1.42-2.63-4.82-8.66-17.54-8.66
		c-12.17,0-15.76,5.74-17.24,8.65c-1.74,3.42-104.63,272.06-104.63,272.06h50.94l73.97-187.71l60.24,138.45h-64.31V293.59
		L808.05,293.59z"/>
	<path class="st0" d="M319.68,96.23c0,0-6.21-4.88-6.21-16.34c0-9.79,12.82-18.29,16.24-18.29h93.85v-50h-105c-8.75,0-53,20-53,62
		c0,32.5,14,45.67,14,45.67l99.66,86.02c0,0,11.09,8.81,11.09,23.81c0,14.75-11.25,15.5-11.25,15.5h-99.5v48.77H385.6
		c9.46,0,53.8-18.77,53.8-61.73c0-29.04-9.88-40.76-17.25-48.14L319.68,96.23L319.68,96.23z"/>
</g>
</svg>
