<?xml version="1.0" encoding="utf-8"?>
<!-- Generator: Adobe Illustrator 24.2.1, SVG Export Plug-In . SVG Version: 6.00 Build 0)  -->
<svg version="1.1" id="Layer_1" xmlns="http://www.w3.org/2000/svg" xmlns:xlink="http://www.w3.org/1999/xlink" x="0px" y="0px"
	 viewBox="0 0 1170.3 113.2" style="enable-background:new 0 0 1170.3 113.2;" xml:space="preserve">
<style type="text/css">
	.st0{enable-background:new    ;}
	.st1{fill:#002C4D;}
</style>
<g class="st0">
	<path class="st1" d="M78.7,2v97.4H56.4l0-65.7l-8.9,65.7H31.7l-9.4-64.2l0,64.2H0V2h33c1,5.9,2,12.8,3,20.7l3.6,24.8L45.5,2H78.7z"
		/>
	<path class="st1" d="M143.6,60.9h-31.7v17.3c0,3.6,0.3,5.9,0.8,7c0.5,1,1.5,1.6,3,1.6c1.9,0,3.1-0.7,3.7-2.1c0.6-1.4,0.9-4.1,0.9-8
		V66.1h23.2V72c0,4.9-0.3,8.7-0.9,11.4c-0.6,2.6-2.1,5.5-4.4,8.5c-2.3,3-5.2,5.3-8.7,6.8c-3.5,1.5-8,2.3-13.3,2.3
		c-5.2,0-9.7-0.7-13.7-2.2c-4-1.5-7-3.5-9.2-6.1c-2.2-2.6-3.7-5.4-4.6-8.5c-0.8-3.1-1.3-7.6-1.3-13.6V47.2c0-7,0.9-12.5,2.8-16.5
		c1.9-4,5-7.1,9.3-9.3c4.3-2.1,9.3-3.2,14.9-3.2c6.9,0,12.5,1.3,17,3.9c4.5,2.6,7.6,6,9.4,10.3c1.8,4.3,2.7,10.3,2.7,18V60.9z
		 M119,47.9v-5.8c0-4.1-0.2-6.8-0.7-8c-0.4-1.2-1.4-1.8-2.7-1.8c-1.7,0-2.7,0.5-3.1,1.5c-0.4,1-0.6,3.8-0.6,8.3v5.8H119z"/>
	<path class="st1" d="M207.1,19.6v61.5c0,8.3-0.2,13.7-0.6,16.1c-0.4,2.4-1.7,5-4.1,7.7c-2.3,2.7-5.6,4.8-9.8,6.2
		c-4.2,1.4-9.4,2.1-15.8,2.1c-7.8,0-14-1.3-18.8-3.9c-4.7-2.6-7.2-7.8-7.3-15.5h23.7c0,3.5,1.3,5.3,3.9,5.3c1.9,0,3.1-0.5,3.7-1.6
		s0.9-3.4,0.9-6.8v-6c-2.1,1.9-4.3,3.3-6.6,4.3c-2.3,1-4.8,1.4-7.3,1.4c-4.4,0-8-0.9-10.9-2.6s-4.8-4.1-5.8-6.9
		c-1-2.9-1.6-6.9-1.6-12.2v-29c0-7.6,1.4-13,4.1-16.4c2.7-3.3,6.9-5,12.5-5c3.1,0,5.9,0.6,8.4,1.9c2.5,1.2,4.8,3.1,6.8,5.6l1.8-6
		H207.1z M182.6,40.8c0-3.6-0.2-6-0.6-7c-0.4-1-1.4-1.5-2.8-1.5c-1.4,0-2.4,0.6-3,1.7c-0.6,1.1-0.9,3.4-0.9,6.8v26.8
		c0,3.6,0.2,5.9,0.7,6.9c0.4,1.1,1.4,1.6,2.8,1.6c1.6,0,2.7-0.6,3.1-1.9c0.5-1.3,0.7-4.2,0.7-8.7V40.8z"/>
	<path class="st1" d="M237.7,50.5h-22.9v-5.4c0-6.2,0.7-10.9,2.1-14.3c1.4-3.3,4.3-6.3,8.6-8.9c4.3-2.6,9.9-3.8,16.8-3.8
		c8.3,0,14.5,1.5,18.7,4.4c4.2,2.9,6.7,6.5,7.6,10.7c0.8,4.2,1.3,12.9,1.3,26.1v40.1h-23.8v-7.1c-1.5,2.9-3.4,5-5.8,6.4
		c-2.4,1.4-5.2,2.1-8.4,2.1c-4.3,0-8.2-1.2-11.8-3.6c-3.6-2.4-5.4-7.6-5.4-15.7v-6.6c0-6,0.9-10,2.8-12.2c1.9-2.2,6.6-4.7,14.1-7.6
		c8-3.1,12.3-5.2,12.9-6.3c0.6-1.1,0.8-3.3,0.8-6.6c0-4.2-0.3-6.9-0.9-8.2c-0.6-1.3-1.7-1.9-3.1-1.9c-1.7,0-2.7,0.5-3.1,1.6
		c-0.4,1.1-0.6,3.8-0.6,8.3V50.5z M245.5,61.5c-3.9,2.8-6.2,5.2-6.8,7.2c-0.6,1.9-0.9,4.7-0.9,8.3c0,4.1,0.3,6.8,0.8,8
		c0.5,1.2,1.6,1.8,3.2,1.8c1.5,0,2.5-0.5,3-1.4c0.5-0.9,0.7-3.4,0.7-7.4V61.5z"/>
	<path class="st1" d="M337.6,37.9h-25.5v-8.8c0-5.6-0.2-9.1-0.7-10.5s-1.6-2.1-3.5-2.1c-1.6,0-2.6,0.6-3.2,1.8
		c-0.6,1.2-0.8,4.3-0.8,9.3v46.7c0,4.4,0.3,7.2,0.8,8.6c0.6,1.4,1.7,2.1,3.4,2.1c1.9,0,3.1-0.8,3.8-2.3s1-4.6,1-9.1V62h-5.1V47.2
		h29.9v52.3h-16l-2.4-7c-1.7,3-3.9,5.3-6.6,6.8c-2.6,1.5-5.8,2.3-9.4,2.3c-4.3,0-8.3-1-12-3.1c-3.7-2.1-6.6-4.6-8.5-7.7
		c-1.9-3-3.2-6.2-3.6-9.6c-0.5-3.3-0.7-8.4-0.7-15.1V37.1c0-9.3,0.5-16.1,1.5-20.3c1-4.2,3.9-8.1,8.7-11.6c4.8-3.5,11-5.3,18.6-5.3
		c7.5,0,13.7,1.5,18.6,4.6c4.9,3,8.1,6.7,9.6,10.9c1.5,4.2,2.2,10.3,2.2,18.3V37.9z"/>
	<path class="st1" d="M371.9,2v12.7h-25.2V2H371.9z M371.9,19.6v79.8h-25.2V19.6H371.9z"/>
	<path class="st1" d="M402.5,50.5h-22.9v-5.4c0-6.2,0.7-10.9,2.1-14.3c1.4-3.3,4.3-6.3,8.6-8.9c4.3-2.6,9.9-3.8,16.8-3.8
		c8.3,0,14.5,1.5,18.7,4.4c4.2,2.9,6.7,6.5,7.6,10.7c0.8,4.2,1.3,12.9,1.3,26.1v40.1h-23.8v-7.1c-1.5,2.9-3.4,5-5.8,6.4
		c-2.4,1.4-5.2,2.1-8.4,2.1c-4.3,0-8.2-1.2-11.8-3.6c-3.6-2.4-5.4-7.6-5.4-15.7v-6.6c0-6,0.9-10,2.8-12.2c1.9-2.2,6.6-4.7,14.1-7.6
		c8-3.1,12.3-5.2,12.9-6.3c0.6-1.1,0.8-3.3,0.8-6.6c0-4.2-0.3-6.9-0.9-8.2c-0.6-1.3-1.7-1.9-3.1-1.9c-1.7,0-2.7,0.5-3.1,1.6
		c-0.4,1.1-0.6,3.8-0.6,8.3V50.5z M410.3,61.5c-3.9,2.8-6.2,5.2-6.8,7.2c-0.6,1.9-0.9,4.7-0.9,8.3c0,4.1,0.3,6.8,0.8,8
		c0.5,1.2,1.6,1.8,3.2,1.8c1.5,0,2.5-0.5,3-1.4c0.5-0.9,0.7-3.4,0.7-7.4V61.5z"/>
	<path class="st1" d="M468,19.6l-0.4,7.4c1.8-2.9,3.9-5.1,6.5-6.6c2.6-1.5,5.5-2.2,8.9-2.2c4.2,0,7.6,1,10.3,2.9
		c2.7,2,4.4,4.4,5.1,7.4c0.8,3,1.2,8,1.2,14.9v55.9h-24.5V44.1c0-5.5-0.2-8.8-0.5-10s-1.4-1.8-3-1.8c-1.7,0-2.8,0.7-3.3,2.1
		c-0.4,1.4-0.7,5.1-0.7,11.1v54h-24.5V19.6H468z"/>
	<path class="st1" d="M533.8,9v12.6h6.6v12.6h-6.6v42.7c0,5.3,0.3,8.2,0.8,8.8s2.8,0.9,6.8,0.9v12.9h-9.9c-5.6,0-9.5-0.2-11.9-0.7
		c-2.4-0.5-4.5-1.5-6.3-3.2c-1.8-1.7-2.9-3.6-3.4-5.7c-0.4-2.1-0.7-7.2-0.7-15.1V34.2H504V21.5h5.3V9H533.8z"/>
	<path class="st1" d="M627.9,44.4h-25.5V27.5c0-4.9-0.3-8-0.8-9.2s-1.7-1.8-3.6-1.8c-2.1,0-3.4,0.7-4,2.2c-0.6,1.5-0.8,4.7-0.8,9.6
		v45.2c0,4.7,0.3,7.8,0.8,9.3c0.6,1.4,1.8,2.2,3.8,2.2c1.9,0,3.1-0.7,3.7-2.2c0.6-1.4,0.9-4.8,0.9-10.2V60.4h25.5v3.8
		c0,10.1-0.7,17.2-2.1,21.4c-1.4,4.2-4.6,7.9-9.5,11.1c-4.9,3.2-10.9,4.8-18.1,4.8c-7.5,0-13.6-1.3-18.5-4
		c-4.8-2.7-8.1-6.4-9.6-11.2c-1.6-4.8-2.4-11.9-2.4-21.4V36.4c0-7,0.2-12.3,0.7-15.8c0.5-3.5,1.9-6.9,4.3-10.1
		c2.4-3.2,5.7-5.8,10-7.7C587,0.9,591.9,0,597.4,0c7.5,0,13.7,1.4,18.6,4.3c4.9,2.9,8.1,6.5,9.6,10.8c1.5,4.3,2.3,11,2.3,20.1V44.4z
		"/>
	<path class="st1" d="M691.7,47.6v19.5c0,7.2-0.4,12.4-1.1,15.8c-0.7,3.3-2.3,6.5-4.7,9.4c-2.4,2.9-5.4,5.1-9.2,6.4
		c-3.7,1.4-8,2.1-12.9,2.1c-5.4,0-10-0.6-13.7-1.8c-3.8-1.2-6.7-3-8.8-5.4s-3.6-5.3-4.5-8.7s-1.3-8.5-1.3-15.2V49.4
		c0-7.4,0.8-13.2,2.4-17.4c1.6-4.2,4.5-7.5,8.7-10c4.2-2.5,9.6-3.8,16.1-3.8c5.5,0,10.2,0.8,14.1,2.4s7,3.7,9.1,6.3s3.6,5.3,4.4,8.1
		S691.7,42,691.7,47.6z M667.2,41.6c0-4.1-0.2-6.7-0.7-7.7c-0.4-1.1-1.4-1.6-2.8-1.6c-1.5,0-2.4,0.5-2.9,1.6
		c-0.5,1.1-0.7,3.6-0.7,7.7v36c0,3.8,0.2,6.2,0.7,7.4s1.4,1.7,2.8,1.7c1.5,0,2.4-0.5,2.9-1.6c0.5-1,0.7-3.3,0.7-6.7V41.6z"/>
	<path class="st1" d="M724.2,19.6l-1,10.5c3.6-7.5,8.7-11.5,15.4-11.9v28.1c-4.5,0-7.8,0.6-9.9,1.8c-2.1,1.2-3.4,2.9-3.9,5
		c-0.5,2.1-0.7,7.1-0.7,14.8v31.5h-24.5V19.6H724.2z"/>
	<path class="st1" d="M769,19.6l-0.4,7.1c2.2-2.9,4.6-5,7.2-6.4c2.6-1.4,5.5-2.1,8.6-2.1c3.8,0,7.1,1,9.8,3c2.8,2,4.5,4.4,5.2,7
		c0.7,2.6,1,7.1,1,13.5v33.6c0,7.3-0.4,12.4-1.3,15.5c-0.9,3.1-2.6,5.5-5.3,7.3s-5.9,2.7-9.7,2.7c-3,0-5.8-0.7-8.4-2.1
		c-2.6-1.4-4.9-3.5-7.1-6.3v18.3h-24.5V19.6H769z M775.9,42.8c0-4.9-0.2-7.9-0.5-9s-1.4-1.6-3-1.6c-1.6,0-2.7,0.6-3.1,1.8
		s-0.7,4.1-0.7,8.7v33.1c0,4.8,0.2,7.8,0.7,9c0.5,1.2,1.5,1.8,3.1,1.8c1.6,0,2.6-0.6,2.9-1.7c0.4-1.1,0.6-3.8,0.6-8V42.8z"/>
	<path class="st1" d="M863.8,47.6v19.5c0,7.2-0.4,12.4-1.1,15.8c-0.7,3.3-2.3,6.5-4.7,9.4c-2.4,2.9-5.4,5.1-9.2,6.4
		c-3.7,1.4-8,2.1-12.9,2.1c-5.4,0-10-0.6-13.7-1.8c-3.8-1.2-6.7-3-8.8-5.4s-3.6-5.3-4.5-8.7s-1.3-8.5-1.3-15.2V49.4
		c0-7.4,0.8-13.2,2.4-17.4c1.6-4.2,4.5-7.5,8.7-10c4.2-2.5,9.6-3.8,16.1-3.8c5.5,0,10.2,0.8,14.1,2.4s7,3.7,9.1,6.3s3.6,5.3,4.4,8.1
		S863.8,42,863.8,47.6z M839.3,41.6c0-4.1-0.2-6.7-0.7-7.7c-0.4-1.1-1.4-1.6-2.8-1.6c-1.5,0-2.4,0.5-2.9,1.6
		c-0.5,1.1-0.7,3.6-0.7,7.7v36c0,3.8,0.2,6.2,0.7,7.4s1.4,1.7,2.8,1.7c1.5,0,2.4-0.5,2.9-1.6c0.5-1,0.7-3.3,0.7-6.7V41.6z"/>
	<path class="st1" d="M896.3,19.6l-1,10.5c3.6-7.5,8.7-11.5,15.4-11.9v28.1c-4.5,0-7.8,0.6-9.9,1.8c-2.1,1.2-3.4,2.9-3.9,5
		c-0.5,2.1-0.7,7.1-0.7,14.8v31.5h-24.5V19.6H896.3z"/>
	<path class="st1" d="M938.1,50.5h-22.9v-5.4c0-6.2,0.7-10.9,2.1-14.3c1.4-3.3,4.3-6.3,8.6-8.9c4.3-2.6,9.9-3.8,16.8-3.8
		c8.3,0,14.5,1.5,18.7,4.4s6.7,6.5,7.6,10.7c0.8,4.2,1.3,12.9,1.3,26.1v40.1h-23.8v-7.1c-1.5,2.9-3.4,5-5.8,6.4s-5.2,2.1-8.4,2.1
		c-4.3,0-8.2-1.2-11.8-3.6c-3.6-2.4-5.4-7.6-5.4-15.7v-6.6c0-6,0.9-10,2.8-12.2c1.9-2.2,6.6-4.7,14.1-7.6c8-3.1,12.3-5.2,12.9-6.3
		c0.6-1.1,0.8-3.3,0.8-6.6c0-4.2-0.3-6.9-0.9-8.2c-0.6-1.3-1.7-1.9-3.1-1.9c-1.7,0-2.7,0.5-3.1,1.6c-0.4,1.1-0.6,3.8-0.6,8.3V50.5z
		 M945.8,61.5c-3.9,2.8-6.2,5.2-6.8,7.2s-0.9,4.7-0.9,8.3c0,4.1,0.3,6.8,0.8,8c0.5,1.2,1.6,1.8,3.2,1.8c1.5,0,2.5-0.5,3-1.4
		c0.5-0.9,0.7-3.4,0.7-7.4V61.5z"/>
	<path class="st1" d="M1004.5,9v12.6h6.6v12.6h-6.6v42.7c0,5.3,0.3,8.2,0.8,8.8s2.8,0.9,6.8,0.9v12.9h-9.9c-5.6,0-9.5-0.2-11.9-0.7
		c-2.4-0.5-4.5-1.5-6.3-3.2c-1.8-1.7-2.9-3.6-3.4-5.7c-0.4-2.1-0.7-7.2-0.7-15.1V34.2h-5.3V21.5h5.3V9H1004.5z"/>
	<path class="st1" d="M1041.7,2v12.7h-25.2V2H1041.7z M1041.7,19.6v79.8h-25.2V19.6H1041.7z"/>
	<path class="st1" d="M1105.8,47.6v19.5c0,7.2-0.4,12.4-1.1,15.8c-0.7,3.3-2.3,6.5-4.7,9.4c-2.4,2.9-5.4,5.1-9.2,6.4
		c-3.7,1.4-8,2.1-12.9,2.1c-5.4,0-10-0.6-13.7-1.8c-3.8-1.2-6.7-3-8.8-5.4s-3.6-5.3-4.5-8.7s-1.3-8.5-1.3-15.2V49.4
		c0-7.4,0.8-13.2,2.4-17.4c1.6-4.2,4.5-7.5,8.7-10c4.2-2.5,9.6-3.8,16.1-3.8c5.5,0,10.2,0.8,14.1,2.4s7,3.7,9.1,6.3s3.6,5.3,4.4,8.1
		S1105.8,42,1105.8,47.6z M1081.4,41.6c0-4.1-0.2-6.7-0.7-7.7c-0.4-1.1-1.4-1.6-2.8-1.6c-1.5,0-2.4,0.5-2.9,1.6
		c-0.5,1.1-0.7,3.6-0.7,7.7v36c0,3.8,0.2,6.2,0.7,7.4s1.4,1.7,2.8,1.7c1.5,0,2.4-0.5,2.9-1.6c0.5-1,0.7-3.3,0.7-6.7V41.6z"/>
	<path class="st1" d="M1138.8,19.6l-0.4,7.4c1.8-2.9,3.9-5.1,6.5-6.6c2.6-1.5,5.5-2.2,8.9-2.2c4.2,0,7.6,1,10.3,2.9
		c2.7,2,4.4,4.4,5.1,7.4c0.8,3,1.2,8,1.2,14.9v55.9h-24.5V44.1c0-5.5-0.2-8.8-0.5-10s-1.4-1.8-3-1.8c-1.7,0-2.8,0.7-3.3,2.1
		c-0.4,1.4-0.7,5.1-0.7,11.1v54h-24.5V19.6H1138.8z"/>
</g>
</svg>
